<?xml version="1.0" encoding="UTF-8"?>
<svg width="512" height="512" viewBox="0 0 512 512" fill="none" xmlns="http://www.w3.org/2000/svg">
  <path d="M256 0C114.6 0 0 114.6 0 256C0 397.4 114.6 512 256 512C397.4 512 512 397.4 512 256C512 114.6 397.4 0 256 0ZM256 464C141.1 464 48 370.9 48 256C48 141.1 141.1 48 256 48C370.9 48 464 141.1 464 256C464 370.9 370.9 464 256 464Z" fill="white"/>
  <path d="M256 128C185.3 128 128 185.3 128 256C128 326.7 185.3 384 256 384C326.7 384 384 326.7 384 256C384 185.3 326.7 128 256 128ZM256 352C203.1 352 160 308.9 160 256C160 203.1 203.1 160 256 160C308.9 160 352 203.1 352 256C352 308.9 308.9 352 256 352Z" fill="white"/>
</svg> 